<?xml version="1.0" encoding="UTF-8"?>
<!DOCTYPE svg PUBLIC "-//W3C//DTD SVG 1.1//EN" "http://www.w3.org/Graphics/SVG/1.1/DTD/svg11.dtd">
<svg xmlns="http://www.w3.org/2000/svg" version="1.1" width="1024px" height="1024px" style="shape-rendering:geometricPrecision; text-rendering:geometricPrecision; image-rendering:optimizeQuality; fill-rule:evenodd; clip-rule:evenodd" xmlns:xlink="http://www.w3.org/1999/xlink">
<g><path style="opacity:0.998" fill="#264de4" d="M 59.5,-0.5 C 360.833,-0.5 662.167,-0.5 963.5,-0.5C 936.274,306.878 908.607,614.211 880.5,921.5C 758.335,955.339 636.335,989.339 514.5,1023.5C 511.833,1023.5 509.167,1023.5 506.5,1023.5C 385.332,989.339 263.998,955.339 142.5,921.5C 114.353,614.219 86.6866,306.886 59.5,-0.5 Z"/></g>
<g><path style="opacity:1" fill="#2965f0" d="M 510.5,827.5 C 510.833,827.5 511.167,827.5 511.5,827.5C 588.13,806.342 664.797,785.175 741.5,764C 742.126,763.25 742.626,762.416 743,761.5C 759.928,571.836 776.762,382.169 793.5,192.5C 794.451,191.081 794.784,189.415 794.5,187.5C 700.167,187.5 605.833,187.5 511.5,187.5C 511.5,149.833 511.5,112.167 511.5,74.5C 634.5,74.5 757.5,74.5 880.5,74.5C 856.835,337.15 833.501,599.817 810.5,862.5C 710.933,890.112 611.266,917.445 511.5,944.5C 511.827,905.427 511.494,866.427 510.5,827.5 Z"/></g>
<g><path style="opacity:1" fill="#a4b9f3" d="M 228.5,188.5 C 322.665,187.501 416.999,187.167 511.5,187.5C 605.833,187.5 700.167,187.5 794.5,187.5C 794.784,189.415 794.451,191.081 793.5,192.5C 793.5,191.167 793.5,189.833 793.5,188.5C 699.5,188.5 605.5,188.5 511.5,188.5C 417.167,188.5 322.833,188.5 228.5,188.5 Z"/></g>
<g><path style="opacity:1" fill="#ebebeb" d="M 228.5,188.5 C 322.833,188.5 417.167,188.5 511.5,188.5C 511.5,225.833 511.5,263.167 511.5,300.5C 420.5,300.5 329.5,300.5 238.5,300.5C 235.107,263.173 231.773,225.839 228.5,188.5 Z"/></g>
<g><path style="opacity:1" fill="#fefefe" d="M 511.5,188.5 C 605.5,188.5 699.5,188.5 793.5,188.5C 793.5,189.833 793.5,191.167 793.5,192.5C 776.762,382.169 759.928,571.836 743,761.5C 742.626,762.416 742.126,763.25 741.5,764C 664.797,785.175 588.13,806.342 511.5,827.5C 511.5,788.5 511.5,749.5 511.5,710.5C 553.31,698.603 595.31,687.27 637.5,676.5C 641.56,628.505 645.56,580.505 649.5,532.5C 650.404,531.791 650.737,530.791 650.5,529.5C 604.167,529.5 557.833,529.5 511.5,529.5C 511.5,492.167 511.5,454.833 511.5,417.5C 561.336,417.832 611.003,417.499 660.5,416.5C 663.169,379.474 666.169,342.474 669.5,305.5C 670.451,304.081 670.784,302.415 670.5,300.5C 617.5,300.5 564.5,300.5 511.5,300.5C 511.5,263.167 511.5,225.833 511.5,188.5 Z"/></g>
<g><path style="opacity:1" fill="#7b9af0" d="M 238.5,300.5 C 329.5,300.5 420.5,300.5 511.5,300.5C 564.5,300.5 617.5,300.5 670.5,300.5C 670.784,302.415 670.451,304.081 669.5,305.5C 669.5,304.167 669.5,302.833 669.5,301.5C 616.833,301.5 564.167,301.5 511.5,301.5C 420.332,301.833 329.332,301.499 238.5,300.5 Z"/></g>
<g><path style="opacity:1" fill="#2965f1" d="M 511.5,301.5 C 564.167,301.5 616.833,301.5 669.5,301.5C 669.5,302.833 669.5,304.167 669.5,305.5C 666.169,342.474 663.169,379.474 660.5,416.5C 610.833,416.5 561.167,416.5 511.5,416.5C 511.5,378.167 511.5,339.833 511.5,301.5 Z"/></g>
<g><path style="opacity:1" fill="#eaeaeb" d="M 511.5,416.5 C 561.167,416.5 610.833,416.5 660.5,416.5C 611.003,417.499 561.336,417.832 511.5,417.5C 511.5,454.833 511.5,492.167 511.5,529.5C 427.167,529.5 342.833,529.5 258.5,529.5C 255.167,491.832 251.833,454.165 248.5,416.5C 336.167,416.5 423.833,416.5 511.5,416.5 Z"/></g>
<g><path style="opacity:1" fill="#517bee" d="M 258.5,529.5 C 342.833,529.5 427.167,529.5 511.5,529.5C 557.833,529.5 604.167,529.5 650.5,529.5C 650.737,530.791 650.404,531.791 649.5,532.5C 603.845,530.505 557.845,529.838 511.5,530.5C 426.998,530.833 342.665,530.499 258.5,529.5 Z"/></g>
<g><path style="opacity:1" fill="#2965f1" d="M 511.5,530.5 C 557.845,529.838 603.845,530.505 649.5,532.5C 645.56,580.505 641.56,628.505 637.5,676.5C 595.31,687.27 553.31,698.603 511.5,710.5C 510.209,710.737 509.209,710.404 508.5,709.5C 509.5,709.5 510.5,709.5 511.5,709.5C 511.5,649.833 511.5,590.167 511.5,530.5 Z"/></g>
<g><path style="opacity:1" fill="#eaeaeb" d="M 508.5,709.5 C 509.209,710.404 510.209,710.737 511.5,710.5C 511.5,749.5 511.5,788.5 511.5,827.5C 511.167,827.5 510.833,827.5 510.5,827.5C 433.616,806.122 356.616,785.122 279.5,764.5C 274.587,705.125 269.254,645.792 263.5,586.5C 301.5,586.5 339.5,586.5 377.5,586.5C 380.127,616.478 382.461,646.478 384.5,676.5C 425.832,687.5 467.165,698.5 508.5,709.5 Z"/></g>
</svg>
